<svg xmlns="http://www.w3.org/2000/svg" width="512" height="512" viewBox="0 0 512 512"><g transform="rotate(45 256 256)"><path d="M 60.04 331.27 A 209.92 209.92 0 0 1 88.71 129.19" stroke="#2563EB" stroke-width="51.20" fill="none" stroke-linecap="round" opacity="1"/><path d="M 133.02 85.88 A 209.92 209.92 0 0 1 275.03 46.94" stroke="#22C55E" stroke-width="51.20" fill="none" stroke-linecap="round" opacity="1"/><path d="M 335.23 61.61 A 209.92 209.92 0 0 1 434.23 145.09" stroke="#7C5CFF" stroke-width="51.20" fill="none" stroke-linecap="round" opacity="1"/><path d="M 458.84 201.96 A 209.92 209.92 0 0 1 451.96 331.27" stroke="#9AA3B2" stroke-width="51.20" fill="none" stroke-linecap="round" opacity="1"/><path d="M 124.57 309.96 A 142.08 142.08 0 0 1 146.23 165.79" stroke="#2563EB" stroke-width="28.16" fill="none" stroke-linecap="round" opacity="0.34"/><path d="M 172.03 141.39 A 142.08 142.08 0 0 1 274.17 115.09" stroke="#22C55E" stroke-width="28.16" fill="none" stroke-linecap="round" opacity="0.34"/><path d="M 308.54 123.99 A 142.08 142.08 0 0 1 378.84 184.61" stroke="#7C5CFF" stroke-width="28.16" fill="none" stroke-linecap="round" opacity="0.34"/><path d="M 392.71 217.29 A 142.08 142.08 0 0 1 387.43 309.96" stroke="#9AA3B2" stroke-width="28.16" fill="none" stroke-linecap="round" opacity="0.34"/></g></svg>
