<svg xmlns="http://www.w3.org/2000/svg" width="512" height="512" viewBox="0 0 512 512"><rect width="512" height="512" fill="#0b1020"/><g transform="translate(56,56)"><g transform="rotate(45 200 200)"><path d="M 46.91 258.81 A 164.00 164.00 0 0 1 69.30 100.93" stroke="#2563EB" stroke-width="40.00" fill="none" stroke-linecap="round" opacity="1"/><path d="M 103.92 67.09 A 164.00 164.00 0 0 1 214.87 36.68" stroke="#22C55E" stroke-width="40.00" fill="none" stroke-linecap="round" opacity="1"/><path d="M 261.90 48.13 A 164.00 164.00 0 0 1 339.24 113.35" stroke="#7C5CFF" stroke-width="40.00" fill="none" stroke-linecap="round" opacity="1"/><path d="M 358.47 157.78 A 164.00 164.00 0 0 1 353.09 258.81" stroke="#9AA3B2" stroke-width="40.00" fill="none" stroke-linecap="round" opacity="1"/><path d="M 97.32 242.16 A 111.00 111.00 0 0 1 114.24 129.52" stroke="#2563EB" stroke-width="22.00" fill="none" stroke-linecap="round" opacity="0.34"/><path d="M 134.40 110.46 A 111.00 111.00 0 0 1 214.20 89.91" stroke="#22C55E" stroke-width="22.00" fill="none" stroke-linecap="round" opacity="0.34"/><path d="M 241.05 96.87 A 111.00 111.00 0 0 1 295.97 144.22" stroke="#7C5CFF" stroke-width="22.00" fill="none" stroke-linecap="round" opacity="0.34"/><path d="M 306.80 169.76 A 111.00 111.00 0 0 1 302.68 242.16" stroke="#9AA3B2" stroke-width="22.00" fill="none" stroke-linecap="round" opacity="0.34"/></g></g></svg>
